<svg width="65" height="65" viewBox="0 0 65 65" fill="none" xmlns="http://www.w3.org/2000/svg"> <circle cx="32.5" cy="32.5" r="32.5" fill="#999999"/> <path d="M32 21C32.5128 21 32.9355 21.386 32.9933 21.8834L33 22V42C33 42.5523 32.5523 43 32 43C31.4872 43 31.0645 42.614 31.0067 42.1166L31 42V22C31 21.4477 31.4477 21 32 21Z" fill="white" stroke="white" stroke-width="3"/> <path d="M42 31C42.5523 31 43 31.4477 43 32C43 32.5128 42.614 32.9355 42.1166 32.9933L42 33H22C21.4477 33 21 32.5523 21 32C21 31.4872 21.386 31.0645 21.8834 31.0067L22 31H42Z" fill="white" stroke="white" stroke-width="3"/> </svg> 