<svg width="76" height="76" viewBox="0 0 76 76" fill="none" xmlns="http://www.w3.org/2000/svg"> <g filter="url(#filter0_d_701_6643)"> <circle cx="36" cy="34" r="32" fill="#999999" stroke="url(#paint0_linear_701_6643)" stroke-width="4"/> <path fill-rule="evenodd" clip-rule="evenodd" d="M36 4C52.5685 4 66 17.4315 66 34C66 50.5685 52.5685 64 36 64C19.4315 64 6 50.5685 6 34C6 17.4315 19.4315 4 36 4ZM54.4607 52.4617C54.4607 47.8464 47.5377 40.9233 35.9992 40.9233C24.4607 40.9233 17.5376 47.8464 17.5376 52.4617C21.5413 57.693 27.6979 60.3084 36.0074 60.3079C44.317 60.3074 50.4681 57.6921 54.4607 52.4617ZM35.9998 36.308C41.0978 36.308 45.2306 32.1752 45.2306 27.0772C45.2306 21.9792 41.0978 17.8464 35.9998 17.8464C30.9018 17.8464 26.769 21.9792 26.769 27.0772C26.769 32.1752 30.9018 36.308 35.9998 36.308Z" fill="white"/> </g> <defs> <filter id="filter0_d_701_6643" x="0" y="0" width="76" height="76" filterUnits="userSpaceOnUse" color-interpolation-filters="sRGB"> <feFlood flood-opacity="0" result="BackgroundImageFix"/> <feColorMatrix in="SourceAlpha" type="matrix" values="0 0 0 0 0 0 0 0 0 0 0 0 0 0 0 0 0 0 127 0" result="hardAlpha"/> <feOffset dx="2" dy="4"/> <feGaussianBlur stdDeviation="2"/> <feComposite in2="hardAlpha" operator="out"/> <feColorMatrix type="matrix" values="0 0 0 0 0.0980392 0 0 0 0 0.65098 0 0 0 0 0.611765 0 0 0 0.2 0"/> <feBlend mode="normal" in2="BackgroundImageFix" result="effect1_dropShadow_701_6643"/> <feBlend mode="normal" in="SourceGraphic" in2="effect1_dropShadow_701_6643" result="shape"/> </filter> <linearGradient id="paint0_linear_701_6643" x1="69.375" y1="-12.5" x2="15" y2="73.375" gradientUnits="userSpaceOnUse"> <stop offset="0.11195" stop-color="#19A69C"/> <stop offset="1" stop-color="#19A69C" stop-opacity="0.5"/> </linearGradient> </defs> </svg>