<svg width="220" height="220" viewBox="0 0 220 220" fill="none" xmlns="http://www.w3.org/2000/svg"> <circle cx="100" cy="100" r="100" fill="#0694A2"/> <path d="M77.5 141.25C75.4289 141.25 73.75 139.571 73.75 137.5C73.75 135.577 75.1977 133.992 77.0627 133.775L77.5 133.75H122.5C124.571 133.75 126.25 135.429 126.25 137.5C126.25 139.423 124.802 141.008 122.937 141.225L122.5 141.25H77.5Z" fill="white"/> <path fill-rule="evenodd" clip-rule="evenodd" d="M62.5 62.5H137.5C141.642 62.5 145 65.8579 145 70V115C145 119.142 141.642 122.5 137.5 122.5H62.5C58.3579 122.5 55 119.142 55 115V70C55 65.8579 58.3579 62.5 62.5 62.5Z" fill="white"/> </svg> 